<?xml version="1.0" encoding="UTF-8"?>
<!DOCTYPE svg PUBLIC "-//W3C//DTD SVG 1.1//EN" "http://www.w3.org/Graphics/SVG/1.1/DTD/svg11.dtd">
<!-- Creator: CorelDRAW -->
<svg xmlns="http://www.w3.org/2000/svg" xml:space="preserve" width="227.657mm" height="223.841mm" version="1.1" style="shape-rendering:geometricPrecision; text-rendering:geometricPrecision; image-rendering:optimizeQuality; fill-rule:evenodd; clip-rule:evenodd"
viewBox="0 0 4781.46 4701.32"
 xmlns:xlink="http://www.w3.org/1999/xlink"
 xmlns:xodm="http://www.corel.com/coreldraw/odm/2003">
 <defs>
  <style type="text/css">
   <![CDATA[
    .fil0 {fill:#012340}
   ]]>
  </style>
 </defs>
 <g id="Layer_x0020_1">
  <metadata id="CorelCorpID_0Corel-Layer"/>
  <path class="fil0" d="M1126.96 2687.76c246.63,0 363.65,-113.42 363.65,-363.65l0 -172.82 -385.25 0 0 97.21c0,86.41 -30.61,115.22 -115.22,115.22l-475.27 0c-86.41,0 -115.22,-28.8 -115.22,-115.22l0 -381.65c0,-86.41 28.8,-115.22 115.22,-115.22l475.27 0c84.61,0 115.22,28.8 115.22,115.22l0 84.61 385.25 0 0 -160.22c0,-250.23 -117.02,-363.65 -363.65,-363.65l-763.31 0c-246.63,0 -363.65,113.42 -363.65,363.65l0 532.87c0,250.24 117.02,363.65 363.65,363.65l763.31 0zm502.27 -284.44c0,196.23 90.01,284.44 284.44,284.44l936.13 0c194.43,0 284.44,-88.21 284.44,-284.44l0 -192.63c0,-194.43 -84.61,-271.84 -284.44,-284.44l-723.7 -45.01c-59.41,-5.4 -79.21,-19.8 -79.21,-79.21l0 -23.4c0,-59.41 19.8,-79.21 79.21,-79.21l518.47 0c59.41,0 79.21,19.8 79.21,79.21l0 36.01 385.25 0 0 -102.61c0,-196.23 -90.01,-284.44 -284.44,-284.44l-892.92 0c-196.23,0 -286.24,88.21 -286.24,284.44l0 169.22c0,192.63 86.41,270.04 286.24,284.44l723.7 45.01c63.01,5.4 79.21,19.8 79.21,79.21l0 45.01c0,59.41 -19.8,79.21 -79.21,79.21l-561.68 0c-59.41,0 -79.21,-19.8 -79.21,-79.21l0 -52.21 -385.25 0 0 120.62zm1647.23 0c0,196.23 90.01,284.44 284.44,284.44l936.13 0c194.43,0 284.44,-88.21 284.44,-284.44l0 -192.63c0,-194.43 -84.61,-271.84 -284.44,-284.44l-723.7 -45.01c-59.41,-5.4 -79.21,-19.8 -79.21,-79.21l0 -23.4c0,-59.41 19.8,-79.21 79.21,-79.21l518.47 0c59.41,0 79.21,19.8 79.21,79.21l0 36.01 385.25 0 0 -102.61c0,-196.23 -90.01,-284.44 -284.44,-284.44l-892.92 0c-196.23,0 -286.24,88.21 -286.24,284.44l0 169.22c0,192.63 86.41,270.04 286.24,284.44l723.7 45.01c63.01,5.4 79.21,19.8 79.21,79.21l0 45.01c0,59.41 -19.8,79.21 -79.21,79.21l-561.68 0c-59.41,0 -79.21,-19.8 -79.21,-79.21l0 -52.21 -385.25 0 0 120.62z"/>
  <path class="fil0" d="M396.95 3275.85c82.21,0 121.22,-37.81 121.22,-121.22l0 -57.61 -128.42 0 0 32.41c0,28.8 -10.2,38.4 -38.41,38.4l-158.42 0c-28.81,0 -38.41,-9.6 -38.41,-38.4l0 -127.22c0,-28.8 9.6,-38.4 38.41,-38.4l158.42 0c28.2,0 38.41,9.6 38.41,38.4l0 28.2 128.42 0 0 -53.41c0,-83.41 -39.01,-121.22 -121.22,-121.22l-254.44 0c-82.21,0 -121.22,37.81 -121.22,121.22l0 177.63c0,83.41 39,121.22 121.22,121.22l254.44 0zm4256.39 -145.22c61.81,-6.6 88.81,-38.4 88.81,-108.61l0 -57.01c0,-76.81 -32.41,-109.22 -109.22,-109.22l-374.45 0 0 420.06 133.22 0 0 -135.02 120.62 0 96.01 135.02 151.82 0 -106.81 -145.22zm-76.81 -179.42c24.6,0 32.4,7.8 32.4,32.4l0 32.41c0,24.6 -7.8,32.4 -32.4,32.4l-184.83 0 0 -97.21 184.83 0zm-672.09 154.22l280.84 0 0 -87.61 -280.84 0 0 -59.41 304.84 0 0 -102.61 -438.06 0 0 420.06 444.06 0 0 -102.61 -310.84 0 0 -67.81zm-645.69 -249.63l0 114.62 171.62 0 0 305.44 133.22 0 0 -305.44 171.62 0 0 -114.62 -476.46 0zm-120.62 274.84c61.81,-6.6 88.81,-38.4 88.81,-108.61l0 -57.01c0,-76.81 -32.41,-109.22 -109.22,-109.22l-374.45 0 0 420.06 133.22 0 0 -135.02 120.62 0 96.01 135.02 151.82 0 -106.81 -145.22zm-76.81 -179.42c24.6,0 32.4,7.8 32.4,32.4l0 32.41c0,24.6 -7.8,32.4 -32.4,32.4l-184.83 0 0 -97.21 184.83 0zm-672.09 154.22l280.84 0 0 -87.61 -280.84 0 0 -59.41 304.84 0 0 -102.61 -438.06 0 0 420.06 444.06 0 0 -102.61 -310.84 0 0 -67.81zm-438.66 31.2l-136.22 -280.84 -148.82 0 218.43 420.06 126.02 0 218.43 -420.06 -142.22 0 -135.62 280.84zm-441.06 -30.6l-265.84 -250.24 -113.42 0 0 420.06 128.42 0 0 -255.64 271.24 255.64 108.01 0 0 -420.06 -128.42 0 0 250.24zm-552.68 169.82c82.21,0 121.22,-37.81 121.22,-121.22l0 -177.63c0,-83.41 -39.01,-121.22 -121.22,-121.22l-271.24 0c-82.21,0 -121.22,37.81 -121.22,121.22l0 177.63c0,83.41 39,121.22 121.22,121.22l271.24 0zm-220.83 -109.82c-28.81,0 -38.41,-9.6 -38.41,-38.4l0 -123.62c0,-28.81 9.6,-38.41 38.41,-38.41l170.42 0c28.2,0 38.4,9.6 38.4,38.41l0 123.62c0,28.8 -10.2,38.4 -38.4,38.4l-170.42 0z"/>
  <path class="fil0" d="M703.05 1254.72l1446.48 5.46c-38.53,-117.31 -119.92,-197.84 -170.27,-321.63 225.77,-243.28 727.03,-362.01 1159.54,-281.4 325.75,60.72 511.23,172.91 749.62,359.82 77.9,61.08 116.81,139.85 189.99,197.06 -200.67,-648.5 -1019.61,-1088.28 -1712.15,-1084.78 -351.47,1.78 -488.35,80.91 -771.36,160.66 -50.96,-99.67 -116.15,-191.5 -152.95,-289.91 -72.19,51.33 -330.82,532.58 -377.48,614.64l-361.42 640.08z"/>
  <path class="fil0" d="M4078.41 3446.6l-1446.48 -5.46c38.53,117.31 119.92,197.84 170.27,321.63 -225.77,243.28 -727.03,362.01 -1159.54,281.4 -325.75,-60.72 -511.23,-172.91 -749.62,-359.82 -77.9,-61.08 -116.81,-139.85 -189.99,-197.06 200.67,648.5 1019.61,1088.28 1712.15,1084.78 351.47,-1.78 488.35,-80.91 771.36,-160.66 50.96,99.67 116.15,191.5 152.95,289.91 72.19,-51.33 330.82,-532.58 377.48,-614.64l361.41 -640.08z"/>
 </g>
</svg>
